<?xml version="1.0" encoding="UTF-8"?>
<svg id="Warstwa_1" xmlns="http://www.w3.org/2000/svg" viewBox="0 0 383.99 383.84">
  <defs>
    <style>
      .cls-1 {
        fill: #004a45;
      }

      .cls-2 {
        fill: #387874;
        stroke: #4d4d4d;
        stroke-miterlimit: 10;
        stroke-width: 7.96px;
      }

      .cls-3 {
        fill: #a0dbd7;
      }

      .cls-4 {
        fill: #00a99d;
      }
    </style>
  </defs>
  <rect class="cls-4" width="383.84" height="383.84" rx="37.39" ry="37.39"/>
  <g>
    <path class="cls-1" d="M29.74,316.39h15.74c8.95,0,14.53,4.39,14.53,11.35,0,3.6-1.8,6.37-4.98,7.93,4.68,1.56,7.27,5.05,7.27,9.73,0,7.51-5.4,11.83-14.78,11.83h-17.78v-40.84ZM37.84,322.82v10.57h7.27c4.32,0,6.61-2.1,6.61-5.23,0-3.3-2.34-5.35-6.43-5.35h-7.45ZM37.84,339.39v11.41h9.49c4.2,0,6.67-2.28,6.67-5.71s-2.58-5.71-7.15-5.71h-9.01Z"/>
    <path class="cls-1" d="M68.36,316.39h8.11v34.29h18.92v6.55h-27.03v-40.84Z"/>
    <path class="cls-1" d="M126.38,348.76h-17.42l-3.12,8.47h-8.11l15.38-40.84h9.55l15.38,40.84h-8.53l-3.12-8.47ZM111.3,342.52h12.73l-5.16-13.99-1.2-4.2-1.2,4.2-5.17,13.99Z"/>
    <path class="cls-1" d="M167.34,329c-1.26-4.44-4.68-6.79-9.25-6.79-6.85,0-10.81,5.58-10.81,14.65s3.9,14.54,10.81,14.54c4.32,0,7.75-2.22,9.13-6.49h8.53c-2.16,8.53-9.19,13.21-17.54,13.21-11.95,0-19.22-8.05-19.22-21.26s7.39-21.38,19.34-21.38c8.47,0,15.62,4.62,17.48,13.51h-8.47Z"/>
    <path class="cls-1" d="M181.87,316.39h8.11v19.4l16.4-19.4h9.49l-17.3,20,18.08,20.84h-10.27l-16.4-18.92v18.92h-8.11v-40.84Z"/>
    <path class="cls-1" d="M225.18,344.62c.42,4.26,2.22,6.79,5.89,6.79s5.95-2.94,5.95-7.87v-27.15h8.05v26.55c0,9.37-5.35,15.2-13.99,15.2s-13.39-5.23-13.93-13.51h8.05Z"/>
    <path class="cls-1" d="M276.59,348.76h-17.42l-3.12,8.47h-8.11l15.38-40.84h9.55l15.38,40.84h-8.53l-3.12-8.47ZM261.52,342.52h12.73l-5.16-13.99-1.2-4.2-1.2,4.2-5.17,13.99Z"/>
    <path class="cls-1" d="M317.56,329c-1.26-4.44-4.68-6.79-9.25-6.79-6.85,0-10.81,5.58-10.81,14.65s3.9,14.54,10.81,14.54c4.32,0,7.75-2.22,9.13-6.49h8.53c-2.16,8.53-9.19,13.21-17.54,13.21-11.95,0-19.22-8.05-19.22-21.26s7.39-21.38,19.34-21.38c8.47,0,15.62,4.62,17.48,13.51h-8.47Z"/>
    <path class="cls-1" d="M332.09,316.39h8.11v19.4l16.4-19.4h9.49l-17.3,20,18.08,20.84h-10.27l-16.4-18.92v18.92h-8.11v-40.84Z"/>
  </g>
  <g>
    <g>
      <rect class="cls-2" x="177.56" y="23.94" width="112.99" height="196.81" rx="14.53" ry="14.53" transform="translate(38.42 -55.07) rotate(14.61)"/>
      <path class="cls-3" d="M233.93,73.56l-20.01-5.22-6.12,8.8-9.32-2.43,29.9-42.33,10.97,2.86,5.44,51.53-9.8-2.55-1.05-10.67ZM218.48,61.87l14.63,3.81-1.75-17.63-.12-5.19-2.64,4.47-10.13,14.53Z"/>
      <path class="cls-3" d="M232.96,170.86l20.1,5.24,6.15-8.83,9.35,2.44-30.02,42.5-11.02-2.87-5.46-51.75,9.84,2.56,1.06,10.71ZM248.48,182.6l-14.69-3.83,1.75,17.7.12,5.21,2.65-4.49,10.17-14.6Z"/>
    </g>
    <g>
      <rect class="cls-2" x="97.99" y="82.82" width="112.99" height="196.81" rx="14.53" ry="14.53" transform="translate(50.7 -33.1) rotate(14.61)"/>
      <path class="cls-3" d="M132.97,121.78c-.79,5.02.52,8.46,4.73,9.56,4.35,1.13,7.71-1.6,9.19-7.26l8.13-31.19,9.25,2.41-7.95,30.5c-2.81,10.77-10.69,15.86-20.63,13.27-9.59-2.5-13.82-10.02-11.96-19.7l9.25,2.41Z"/>
      <path class="cls-3" d="M174.88,240.44c.8-5.04-.52-8.5-4.75-9.6-4.36-1.14-7.75,1.61-9.23,7.29l-8.16,31.32-9.29-2.42,7.98-30.63c2.82-10.81,10.74-15.93,20.72-13.33,9.63,2.51,13.88,10.06,12.01,19.78l-9.29-2.42Z"/>
    </g>
  </g>
</svg>