<?xml version="1.0" encoding="UTF-8"?>
<svg id="Warstwa_1" xmlns="http://www.w3.org/2000/svg" viewBox="0 0 384.15 384.15">
  <defs>
    <style>
      .cls-1 {
        stroke-width: 12.18px;
      }

      .cls-1, .cls-2 {
        stroke: #b56900;
        stroke-miterlimit: 10;
      }

      .cls-1, .cls-3 {
        fill: #c29500;
      }

      .cls-4 {
        fill: #826237;
      }

      .cls-2 {
        fill: none;
        stroke-dasharray: 20.65 20.65;
        stroke-width: 12.18px;
      }

      .cls-5 {
        fill: #c2c200;
      }

      .cls-6 {
        fill: #575700;
      }
    </style>
  </defs>
  <rect class="cls-5" width="384.15" height="384.15" rx="37.42" ry="37.42"/>
  <g>
    <g>
      <circle class="cls-3" cx="243.53" cy="119.12" r="92.04"/>
      <circle class="cls-2" cx="243.53" cy="119.12" r="92.04"/>
    </g>
    <path class="cls-1" d="M222.66,75.73v36.11h41.75v-36.11h11.27v86.31h-11.27v-40.47h-41.75v40.47h-11.14v-86.31h11.14Z"/>
  </g>
  <path class="cls-4" d="M71.01,220.8c3.28-1.94,6.64-3.75,10.07-5.41,1.7-.82,3.41-1.61,5.14-2.37.4-.17.8-.35,1.2-.52.7-.3-.66.28-.63.27.2-.08.4-.17.61-.25.95-.39,1.89-.77,2.85-1.14,7.23-2.8,14.68-5.03,22.25-6.69,2.19-.48,4.38-.91,6.59-1.29,1.03-.18,2.07-.35,3.1-.51.59-.09,1.19-.17,1.78-.26.21-.03,1.01-.14-.02,0-1.2.16.29-.04.43-.05,1.89-.24,3.45-.61,4.85-2.01,1.19-1.19,2.09-3.14,2.01-4.85s-.66-3.61-2.01-4.85c-1.24-1.14-3.1-2.23-4.85-2.01-16.83,2.15-33.06,6.64-48.44,13.85-4.04,1.89-7.99,3.98-11.83,6.25-3.09,1.83-4.48,6.26-2.46,9.39s6.08,4.41,9.39,2.46h0Z"/>
  <path class="cls-4" d="M113.39,243.98c3.28-1.94,6.64-3.75,10.07-5.41,1.7-.82,3.41-1.61,5.14-2.37.4-.17.8-.35,1.2-.52.7-.3-.66.28-.63.27.2-.08.4-.17.61-.25.95-.39,1.89-.77,2.85-1.14,7.23-2.8,14.68-5.03,22.25-6.69,2.19-.48,4.38-.91,6.59-1.29,1.03-.18,2.07-.35,3.1-.51.59-.09,1.19-.17,1.78-.26.21-.03,1.01-.14-.02,0-1.2.16.29-.04.43-.05,1.89-.24,3.45-.61,4.85-2.01,1.19-1.19,2.09-3.14,2.01-4.85s-.66-3.61-2.01-4.85c-1.24-1.14-3.1-2.23-4.85-2.01-16.83,2.15-33.06,6.64-48.44,13.85-4.04,1.89-7.99,3.98-11.83,6.25-3.09,1.83-4.48,6.26-2.46,9.39s6.08,4.41,9.39,2.46h0Z"/>
  <path class="cls-4" d="M161.07,263.4c3.28-1.94,6.64-3.75,10.07-5.41,1.7-.82,3.41-1.61,5.14-2.37.4-.17.8-.35,1.2-.52.7-.3-.66.28-.63.27.2-.08.4-.17.61-.25.95-.39,1.89-.77,2.85-1.14,7.23-2.8,14.68-5.03,22.25-6.69,2.19-.48,4.38-.91,6.59-1.29,1.03-.18,2.07-.35,3.1-.51.59-.09,1.19-.17,1.78-.26.21-.03,1.01-.14-.02,0-1.2.16.29-.04.43-.05,1.89-.24,3.45-.61,4.85-2.01,1.19-1.19,2.09-3.14,2.01-4.85s-.66-3.61-2.01-4.85c-1.24-1.14-3.1-2.23-4.85-2.01-16.83,2.15-33.06,6.64-48.44,13.85-4.04,1.89-7.99,3.98-11.83,6.25-3.09,1.83-4.48,6.26-2.46,9.39s6.08,4.41,9.39,2.46h0Z"/>
  <g>
    <path class="cls-6" d="M79.74,327.6c-1.45-5.11-5.38-7.8-10.63-7.8-7.87,0-12.43,6.42-12.43,16.85s4.49,16.71,12.43,16.71c4.97,0,8.91-2.55,10.49-7.46h9.8c-2.49,9.8-10.56,15.19-20.16,15.19-13.74,0-22.09-9.25-22.09-24.44s8.49-24.58,22.23-24.58c9.73,0,17.95,5.32,20.09,15.53h-9.73Z"/>
    <path class="cls-6" d="M94.87,336.64c0-15.12,8.77-24.58,22.99-24.58s23.06,9.46,23.06,24.58-8.84,24.44-23.06,24.44-22.99-9.32-22.99-24.44ZM131.39,336.64c0-10.42-5.04-16.85-13.53-16.85s-13.46,6.35-13.46,16.85,4.97,16.71,13.46,16.71,13.53-6.28,13.53-16.71Z"/>
    <path class="cls-6" d="M148.59,313.1h9.32v46.95h-9.32v-46.95Z"/>
    <path class="cls-6" d="M167.16,313.1h9.8l17.4,27.89,3.24,6.42-.35-34.31h9.25v46.95h-9.73l-17.4-27.82-3.31-6.56.41,34.38h-9.32v-46.95Z"/>
    <path class="cls-6" d="M215.84,313.1h33v7.39h-23.68v13.26h21.06v7.39h-21.06v18.92h-9.32v-46.95Z"/>
    <path class="cls-6" d="M255.75,313.1h9.32v39.42h21.75v7.53h-31.07v-46.95Z"/>
    <path class="cls-6" d="M293.31,313.1h9.32v46.95h-9.32v-46.95Z"/>
    <path class="cls-6" d="M311.88,313.1h17.47c11.25,0,18.23,5.8,18.23,15.39s-7.04,15.53-18.09,15.53h-8.28v16.02h-9.32v-46.95ZM321.2,320.49v16.16h7.8c5.94,0,9.04-3.18,9.04-8.08s-3.18-8.08-8.84-8.08h-8.01Z"/>
  </g>
</svg>