<?xml version="1.0" encoding="UTF-8"?>
<svg id="Warstwa_1" xmlns="http://www.w3.org/2000/svg" viewBox="0 0 383.99 383.79">
  <defs>
    <style>
      .cls-1 {
        fill: #002238;
      }

      .cls-2 {
        fill: #b6cad6;
      }

      .cls-3 {
        fill: #ab0022;
      }

      .cls-4 {
        fill: #fc4267;
      }

      .cls-5 {
        fill: #0065a9;
      }

      .cls-6 {
        fill: #4d9e50;
      }

      .cls-6, .cls-7 {
        stroke: #84cf87;
        stroke-width: 7.11px;
      }

      .cls-6, .cls-7, .cls-8, .cls-9 {
        stroke-miterlimit: 10;
      }

      .cls-7 {
        fill: none;
      }

      .cls-8 {
        stroke-width: 10.66px;
      }

      .cls-8, .cls-9 {
        fill: #cc0028;
        stroke: #fc4267;
      }

      .cls-9 {
        stroke-width: 9.82px;
      }
    </style>
  </defs>
  <rect class="cls-5" width="383.79" height="383.79" rx="37.39" ry="37.39"/>
  <g>
    <path class="cls-6" d="M140.38,49.42c-21.73,2.8-43.47,5.59-65.2,8.39-17.37,20.05-32.1,44.04-49.48,64.09,36.01,41.69,72.02,83.38,108.03,125.07,24.46-48.05,46.28-100.03,70.74-148.07-21.36-16.49-42.73-32.99-64.09-49.48Z"/>
    <line class="cls-7" x1="25.7" y1="121.91" x2="85.4" y2="120.64"/>
    <line class="cls-7" x1="204.15" y1="97.67" x2="146.39" y2="112.79"/>
    <line class="cls-7" x1="85.4" y1="120.64" x2="146.39" y2="112.79"/>
    <line class="cls-7" x1="75.18" y1="57.81" x2="85.4" y2="120.64"/>
    <line class="cls-7" x1="140.38" y1="49.42" x2="146.39" y2="112.79"/>
    <line class="cls-7" x1="85.4" y1="120.64" x2="133.73" y2="246.98"/>
    <line class="cls-7" x1="146.39" y1="112.79" x2="133.73" y2="246.98"/>
  </g>
  <g>
    <path class="cls-1" d="M94.26,316.52h11.45l11,28.08,1.6,5.44,1.66-5.44,10.94-28.08h11.13v43.49h-8.57l.32-33.77-3.2,10.04-9.34,23.73h-6.2l-9.4-23.86-3.13-9.79.38,33.64h-8.63v-43.49Z"/>
    <path class="cls-1" d="M150.61,316.52h8.63v43.49h-8.63v-43.49Z"/>
    <path class="cls-1" d="M167.82,316.52h9.08l16.12,25.84,3.01,5.95-.32-31.79h8.57v43.49h-9.02l-16.12-25.77-3.07-6.08.38,31.85h-8.63v-43.49Z"/>
    <path class="cls-1" d="M212.91,316.52h30.57v6.84h-21.94v10.87h19.51v6.78h-19.51v12.15h21.94v6.84h-30.57v-43.49Z"/>
    <path class="cls-1" d="M283.72,347.22c0,8.76-7.16,13.75-17.01,13.75s-16.95-4.61-18.61-14.07h9.02c1.09,4.61,4.41,7.16,9.66,7.16s8.12-2.24,8.12-5.76c0-11.06-25.97-2.75-25.97-20.08,0-6.91,5.69-12.66,15.99-12.66,8.76,0,16.18,4.22,17.59,14.01h-9.15c-1.02-4.86-4.03-7.1-8.7-7.1-4.35,0-6.97,1.98-6.97,4.99,0,10.42,26.03,1.98,26.03,19.76Z"/>
  </g>
  <g>
    <circle class="cls-8" cx="236.31" cy="193.67" r="83.51"/>
    <g>
      <path class="cls-4" d="M184.22,166.05c4.98-12.53,15.32-22.76,27.71-28.27,3.35-1.49,7.27-2.66,11.02-3.37,1.6-.31,2.52-2.23,2.11-3.72-.46-1.68-2.11-2.42-3.72-2.11-14.94,2.86-28.32,12-36.93,24.46-2.46,3.56-4.43,7.39-6.02,11.41-.6,1.52.66,3.32,2.11,3.72,1.72.47,3.11-.59,3.72-2.11h0Z"/>
      <path class="cls-4" d="M208.15,165.17c.01-.13.02-.26.04-.38l-.06.51c.07-.16.07-.39.11-.57.08-.37.18-.74.31-1.11.06-.17.17-.36.2-.54-.21.47-.26.59-.15.36.04-.09.08-.17.12-.26.16-.35.34-.68.54-1.01s.41-.64.64-.96c.41-.57-.51.6-.05.07.13-.15.25-.29.38-.44.26-.28.53-.56.82-.82.14-.13.29-.26.43-.38.29-.24.57-.25-.07.04.33-.15.64-.46.96-.65.33-.2.66-.39,1.01-.57.17-.09.35-.17.52-.25.56-.27-.72.26-.09.04.36-.12.72-.25,1.09-.36s.74-.17,1.12-.25c.58-.12-.65.06-.23.03.19-.02.38-.04.57-.05.38-.02.76-.03,1.15,0,.19,0,.38.03.57.04.27.03.13,0-.41-.06.13.02.25.04.38.06,1.72.31,3.69-.47,4.11-2.33.37-1.63-.49-3.78-2.33-4.11-4.2-.76-8.52.21-11.95,2.8-3.64,2.74-5.96,6.57-6.4,11.13-.17,1.75,1.66,3.42,3.34,3.34,1.95-.09,3.17-1.47,3.34-3.34h0Z"/>
    </g>
    <g>
      <path class="cls-3" d="M293.5,219.09c-4.72,12.65-14.79,23.1-27.07,28.89-3.39,1.6-7.15,2.81-10.94,3.62-1.6.34-2.53,2.21-2.11,3.72.45,1.65,2.12,2.45,3.72,2.11,14.86-3.17,28.09-12.56,36.44-25.2,2.38-3.6,4.29-7.49,5.79-11.53.57-1.53-.64-3.31-2.11-3.72-1.69-.47-3.15.58-3.72,2.11h0Z"/>
      <path class="cls-3" d="M269.57,220.46c-.01.19-.05.38-.05.57-.01-.95.06-.43,0-.14-.07.37-.17.74-.28,1.1-.06.18-.12.36-.18.54-.04.12-.09.24-.14.35l.19-.45c-.21.28-.34.7-.51,1.01-.19.33-.39.65-.61.96-.07.1-.15.21-.22.31l.29-.37c-.14.12-.24.3-.36.44-.52.61-1.11,1.14-1.72,1.66-.25.21.67-.49.07-.06-.16.11-.31.22-.47.32-.32.21-.65.4-.99.58-.17.09-.34.18-.51.26-.11.05-.75.36-.21.1s-.1.03-.22.07c-.18.06-.36.12-.54.18-.36.11-.73.2-1.1.28-.13.03-.83.12-.21.05s-.08,0-.21.01c-.38.03-.76.04-1.14.03-.19,0-.38-.02-.57-.03-.83-.07.7.12.04.01-.92-.14-1.74-.15-2.58.34-.69.41-1.35,1.2-1.54,2-.36,1.6.49,3.82,2.33,4.11,2.24.35,4.46.32,6.65-.32s4.02-1.7,5.76-3.08c3.34-2.64,5.38-6.6,5.69-10.83.13-1.75-1.63-3.42-3.34-3.34-1.92.09-3.21,1.47-3.34,3.34h0Z"/>
    </g>
    <polygon class="cls-9" points="298.5 154.58 278.96 145.7 273.9 129.98 295.22 108.66 319.82 133.26 298.5 154.58"/>
    <path class="cls-3" d="M301.85,147.38c-.22.04-.44.07-.66.1l1.98-.27c-1.98.25-3.96.24-5.94-.02l1.98.27c-2.21-.32-4.35-.92-6.41-1.78l1.78.75c-1.67-.72-3.26-1.57-4.77-2.58-.38-.25-.75-.52-1.12-.79-1.02-.72,1.6,1.3.16.11-.71-.59-1.39-1.21-2.04-1.85s-1.28-1.33-1.87-2.04c-.41-.49-1.25-1.9.09.15-.25-.39-.54-.75-.8-1.13-1.04-1.53-1.92-3.16-2.65-4.86l.75,1.78c-.9-2.15-1.52-4.38-1.85-6.68l.27,1.98c-.06-.46-.11-.93-.15-1.4-.17-2.01-.72-3.81-2.19-5.28-1.29-1.29-3.42-2.27-5.28-2.19-3.76.17-7.82,3.3-7.47,7.47.68,7.97,3.82,15.07,9.06,21.1,4.58,5.27,11,9.33,17.76,11.08,4.46,1.15,8.82,1.18,13.33.46,1.73-.28,3.62-1.98,4.46-3.43.94-1.6,1.33-3.96.75-5.75s-1.7-3.55-3.43-4.46c-1.88-1-3.66-1.09-5.75-.75h0Z"/>
    <path class="cls-2" d="M314.2,123.14c3-2.16,5.93-4.44,9.08-6.38.72-.44,1.46-.87,2.2-1.27.37-.2.75-.39,1.13-.58.26-.13,1.69-.72.76-.37,1.5-.57,2.97-.96,4.53-1.31.56-.13-.4.04-.41.04.21-.06.51-.06.72-.08.36-.03.72-.05,1.08-.07.78-.03,1.55,0,2.32.07.16.01.38.08.53.06-.04,0-.96-.17-.42-.04.4.1.81.15,1.2.26.34.09.67.18,1,.29.16.05.33.12.49.17.63.19-.79-.39-.21-.1.61.32,1.22.62,1.8,1.01.09.06.32.28.42.3-.47-.06-.61-.52-.19-.11.29.28.59.55.86.86.12.13.23.27.35.4-.04-.04-.46-.69-.2-.24.19.32.41.62.59.94s.33.65.5.98c.31.61-.25-.81-.08-.15.06.23.16.46.23.69.11.35.2.71.28,1.06.04.18.29,1.3.14.63s.04.45.06.65c.03.44.05.88.06,1.33.01.84-.02,1.67-.08,2.51-.03.39-.07.78-.11,1.17-.02.16,0,.44-.07.58.14-.31.11-.75.01-.13-.52,3.33-1.4,6.6-1.91,9.94-1.13,7.43-.83,15.84,5.34,21.14,3.05,2.62,6.66,4.11,10.43,5.41,1.63.56,3.27,1.09,4.88,1.72.17.06.33.13.49.2.64.25-.8-.37-.19-.08.42.21.85.39,1.27.61.78.4,1.52.85,2.24,1.35,2.11,1.46,5.52.46,6.68-1.75,1.32-2.49.5-5.13-1.75-6.68-2.81-1.95-6.11-3.11-9.33-4.2-1.51-.51-3.02-1.02-4.5-1.61-.87-.34.73.35-.11-.05-.36-.17-.72-.34-1.08-.52-.66-.34-1.27-.73-1.89-1.13-.71-.45.64.57-.22-.16-.26-.22-.51-.45-.75-.69-.28-.29-.54-.59-.81-.9.62.72,0-.04-.2-.39-.06-.1-.65-1.1-.6-1.13.02-.02.32.88.14.33-.06-.17-.13-.34-.19-.51-.22-.66-.71-1.81-.61-2.5,0,0,.09.96.05.37-.01-.19-.04-.37-.05-.56-.03-.38-.05-.76-.06-1.13-.02-.9,0-1.8.07-2.69.03-.45.08-.91.13-1.36.02-.17,0-.42.07-.58-.01.03-.14.9-.04.33.15-.9.29-1.81.47-2.71,1.42-7.27,3.53-15.04.5-22.21s-10.78-11.27-18.68-10.72c-9.12.63-16.17,6.16-23.31,11.29-2.07,1.49-3.28,4.32-1.75,6.68,1.32,2.05,4.46,3.35,6.68,1.75h0Z"/>
  </g>
</svg>