<?xml version="1.0" encoding="UTF-8"?>
<svg id="Warstwa_1" xmlns="http://www.w3.org/2000/svg" viewBox="0 0 383.99 383.99">
  <defs>
    <style>
      .cls-1 {
        fill: #c1d7d9;
      }

      .cls-2 {
        fill: #536070;
      }
    </style>
  </defs>
  <rect class="cls-2" width="383.99" height="383.99" rx="37.41" ry="37.41"/>
  <g>
    <path class="cls-1" d="M28.83,58.17h15.28l14.68,37.46,2.13,7.26,2.22-7.26,14.59-37.46h14.85v58.03h-11.44l.43-45.06-4.27,13.4-12.46,31.66h-8.28l-12.54-31.83-4.18-13.06.51,44.89h-11.52v-58.03Z"/>
    <path class="cls-1" d="M102.04,87.27c0-18.69,10.84-30.38,28.42-30.38s28.5,11.69,28.5,30.38-10.92,30.21-28.5,30.21-28.42-11.52-28.42-30.21ZM147.19,87.27c0-12.89-6.23-20.82-16.73-20.82s-16.64,7.85-16.64,20.82,6.14,20.65,16.64,20.65,16.73-7.77,16.73-20.65Z"/>
    <path class="cls-1" d="M168.43,58.17h22.7c13.06,0,21.16,6.57,21.16,17.15,0,6.49-2.82,11.01-7.77,13.65,2.99,1.88,4.78,4.95,5.97,9.73l4.35,17.49h-11.95l-3.41-15.36c-1.37-5.97-3.58-7.17-9.3-7.17h-10.24v22.53h-11.52v-58.03ZM179.95,67.3v17.32h10.67c6.49,0,9.9-3.41,9.9-8.7s-3.5-8.62-9.64-8.62h-10.92Z"/>
    <path class="cls-1" d="M222.87,58.17h40.79v9.13h-29.27v14.51h26.03v9.05h-26.03v16.21h29.27v9.13h-40.79v-58.03Z"/>
    <path class="cls-1" d="M67.15,178.48c-1.79-6.32-6.66-9.64-13.14-9.64-9.73,0-15.36,7.94-15.36,20.82s5.55,20.65,15.36,20.65c6.14,0,11.01-3.16,12.97-9.22h12.12c-3.07,12.12-13.06,18.77-24.92,18.77-16.98,0-27.31-11.44-27.31-30.21s10.5-30.38,27.48-30.38c12.03,0,22.19,6.57,24.83,19.2h-12.03Z"/>
    <path class="cls-1" d="M85.83,189.66c0-18.69,10.84-30.38,28.42-30.38s28.5,11.69,28.5,30.38-10.92,30.21-28.5,30.21-28.42-11.52-28.42-30.21ZM130.97,189.66c0-12.89-6.23-20.82-16.73-20.82s-16.64,7.85-16.64,20.82,6.14,20.65,16.64,20.65,16.73-7.77,16.73-20.65Z"/>
    <path class="cls-1" d="M152.22,160.56h15.28l14.68,37.46,2.13,7.26,2.22-7.26,14.59-37.46h14.85v58.03h-11.44l.43-45.06-4.27,13.4-12.46,31.66h-8.28l-12.54-31.83-4.18-13.06.51,44.89h-11.52v-58.03Z"/>
    <path class="cls-1" d="M227.39,160.56h11.52v58.03h-11.52v-58.03Z"/>
    <path class="cls-1" d="M250.35,160.56h12.12l21.51,34.48,4.01,7.94-.43-42.41h11.44v58.03h-12.03l-21.51-34.39-4.1-8.11.51,42.5h-11.52v-58.03Z"/>
    <path class="cls-1" d="M352.75,218.59l-.94-7.34c-3.58,5.89-9.64,8.62-16.81,8.62-15.96,0-26.46-11.44-26.46-30.21s10.5-30.38,27.48-30.38c12.03,0,22.19,6.57,24.83,19.2h-12.03c-1.79-6.23-6.66-9.64-13.14-9.64-9.73,0-15.36,7.85-15.36,20.82s5.89,20.65,15.79,20.65c7.17,0,12.97-4.1,13.74-13.74h-12.54v-8.7h23.47v30.72h-8.02Z"/>
    <path class="cls-1" d="M73.29,303.92c0,11.69-9.56,18.35-22.7,18.35s-22.61-6.14-24.83-18.77h12.03c1.45,6.14,5.89,9.56,12.89,9.56s10.84-2.99,10.84-7.68c0-14.76-34.65-3.67-34.65-26.8,0-9.22,7.6-16.9,21.33-16.9,11.69,0,21.59,5.63,23.47,18.69h-12.2c-1.37-6.49-5.38-9.47-11.61-9.47-5.8,0-9.3,2.65-9.3,6.66,0,13.91,34.73,2.65,34.73,26.37Z"/>
    <path class="cls-1" d="M79.68,292.06c0-18.69,10.84-30.38,28.42-30.38s28.5,11.69,28.5,30.38-10.92,30.21-28.5,30.21-28.42-11.52-28.42-30.21ZM124.83,292.06c0-12.89-6.23-20.82-16.73-20.82s-16.64,7.85-16.64,20.82,6.14,20.65,16.64,20.65,16.73-7.77,16.73-20.65Z"/>
    <path class="cls-1" d="M144.11,292.06c0-18.69,10.84-30.38,28.42-30.38s28.5,11.69,28.5,30.38-10.92,30.21-28.5,30.21-28.42-11.52-28.42-30.21ZM189.25,292.06c0-12.89-6.23-20.82-16.73-20.82s-16.64,7.85-16.64,20.82,6.14,20.65,16.64,20.65,16.73-7.77,16.73-20.65Z"/>
    <path class="cls-1" d="M210.5,262.96h12.12l21.51,34.48,4.01,7.94-.43-42.41h11.44v58.03h-12.03l-21.51-34.39-4.1-8.11.51,42.5h-11.52v-58.03Z"/>
  </g>
</svg>