<?xml version="1.0" encoding="UTF-8"?>
<svg id="Warstwa_1" xmlns="http://www.w3.org/2000/svg" viewBox="0 0 383.15 383.15">
  <defs>
    <style>
      .cls-1 {
        fill: #3c9e2c;
        stroke: #4ac236;
        stroke-width: 1.81px;
      }

      .cls-1, .cls-2, .cls-3, .cls-4 {
        stroke-miterlimit: 10;
      }

      .cls-5 {
        fill: #520b4a;
      }

      .cls-6 {
        fill: #a90098;
      }

      .cls-2 {
        fill: none;
        stroke-width: 4.18px;
      }

      .cls-2, .cls-4 {
        stroke: #702b69;
      }

      .cls-3 {
        fill: #ffcfe2;
        stroke: #000;
        stroke-width: .9px;
      }

      .cls-4 {
        fill: #a96ea3;
        stroke-width: 2.71px;
      }
    </style>
  </defs>
  <rect class="cls-6" width="383.15" height="383.15" rx="37.33" ry="37.33"/>
  <g>
    <g>
      <g>
        <path class="cls-4" d="M272,106.49H111.15c-5.11,0-8.72-3.14-8.07-6.96l4.36-25.69c.58-3.4,4.88-6.13,9.62-6.13h149.02c4.74,0,9.04,2.73,9.62,6.13l4.36,25.69c.65,3.82-2.96,6.96-8.07,6.96Z"/>
        <path class="cls-4" d="M266.09,67.71H117.06c-4.74,0-8.12-2.7-7.56-5.98l3.77-22.18c.5-2.95,4.48-5.31,8.89-5.31h138.82c4.41,0,8.39,2.36,8.89,5.31l3.77,22.18c.56,3.28-2.82,5.98-7.56,5.98Z"/>
        <path class="cls-4" d="M260.99,34.24H122.16c-4.41,0-7.59-2.34-7.1-5.19l3.29-19.34c.44-2.58,4.14-4.65,8.27-4.65h129.93c4.13,0,7.83,2.07,8.27,4.65l3.29,19.34c.48,2.85-2.69,5.19-7.1,5.19Z"/>
        <line class="cls-2" x1="215.56" y1="4.77" x2="221.26" y2="106.07"/>
        <line class="cls-2" x1="167.59" y1="4.77" x2="161.89" y2="106.07"/>
      </g>
      <path class="cls-3" d="M142.25,90.17c-1.95.94-6.22-.81-5.84-1.94.56-1.65,6.56-3.14,8.98-3.04,3.92.16-1.2,4.04-3.14,4.97ZM135.53,93.74c-1.02.66-4.51.66-5.39,0-.82-.62.71-1.09,1.29-1.76.68-.77,1.05-1.46,1.77-1.46s.93.69,1.44,1.46c.43.66,1.82,1.15.89,1.76ZM124.24,90.17c-1.73-.94-5.97-4.81-2-4.97,2.44-.1,8.11,1.39,8.29,3.04.12,1.13-4.55,2.87-6.28,1.94ZM147.79,89.53c1.35-1.57,2.18-3.36,2.33-5.24.5-6.06-6.25-10.87-15.07-10.87s-16.66,4.81-17.55,10.87c-.28,1.88.15,3.66,1.14,5.24-1.25.62-2.14,1.59-2.3,2.68-.28,1.89,1.72,3.43,4.46,3.43.26,0,.52-.01.77-.04-.39.54-.84,1.21-.97,1.55-.56,1.43,1.33,2.64,3.42,2.64,0,0,1,.06,1.24-.09.85-.55.38-2.99.38-2.99.05-.41.57-.74,1.16-.74s1.02.33.97.74c0,0-1.09,2.53-.38,3.08.58.44,2.91.44,3.59,0,.84-.55.36-3.08.36-3.08.05-.41.56-.74,1.15-.74s1.02.33.98.74c0,0-1.06,2.53-.35,3.08.59.44,2.91.44,3.59,0,.84-.55.32-3.08.32-3.08.04-.41.55-.74,1.14-.74s1.03.33.99.74c0,0-1.03,2.44-.3,2.99.2.15,1.22.09,1.22.09,2.09,0,4.25-1.21,4.02-2.64-.05-.34-.36-1.01-.62-1.55.25.03.5.04.76.04,2.74,0,5.09-1.54,5.25-3.43.09-1.09-.58-2.06-1.69-2.68Z"/>
      <path class="cls-3" d="M259.59,90.17c-1.73.94-6.4-.81-6.28-1.94.18-1.65,5.84-3.14,8.28-3.04,3.96.16-.27,4.04-2,4.97ZM253.68,93.74c-.87.66-4.36.66-5.39,0-.96-.62.45-1.09.89-1.76.5-.77.72-1.46,1.44-1.46s1.09.69,1.77,1.46c.58.66,2.09,1.15,1.29,1.76ZM241.58,90.17c-1.94-.94-7.07-4.81-3.15-4.97,2.41-.1,8.42,1.39,8.98,3.04.38,1.13-3.89,2.87-5.84,1.94ZM264.98,89.53c.98-1.57,1.41-3.36,1.13-5.24-.89-6.06-8.75-10.87-17.56-10.87s-15.56,4.81-15.06,10.87c.16,1.88.99,3.66,2.34,5.24-1.11.62-1.77,1.59-1.68,2.68.16,1.89,2.51,3.43,5.25,3.43.26,0,.51-.01.76-.04-.26.54-.56,1.21-.62,1.55-.24,1.43,1.94,2.64,4.02,2.64,0,0,1.02.06,1.22-.09.72-.55-.31-2.99-.31-2.99-.04-.41.4-.74.99-.74s1.09.33,1.14.74c0,0-.51,2.53.33,3.08.68.44,3.01.44,3.59,0,.72-.55-.35-3.08-.35-3.08-.05-.41.39-.74.98-.74s1.1.33,1.15.74c0,0-.48,2.53.36,3.08.69.44,3.01.44,3.59,0,.71-.55-.38-3.08-.38-3.08-.05-.41.38-.74.97-.74s1.1.33,1.16.74c0,0-.47,2.44.38,2.99.24.15,1.24.09,1.24.09,2.09,0,3.98-1.21,3.41-2.64-.13-.34-.59-1.01-.98-1.55.25.03.51.04.77.04,2.74,0,4.74-1.54,4.46-3.43-.16-1.09-1.05-2.06-2.3-2.68Z"/>
      <path class="cls-3" d="M145.4,54.04c-1.8.81-5.79-.7-5.44-1.67.51-1.43,6.08-2.71,8.33-2.63,3.65.14-1.09,3.49-2.89,4.3ZM139.18,57.12c-.95.57-4.19.57-5,0-.76-.53.65-.94,1.19-1.52.62-.66.97-1.26,1.64-1.26s.87.6,1.35,1.26c.41.57,1.7,1,.84,1.52ZM128.67,54.04c-1.61-.81-5.59-4.16-1.9-4.3,2.27-.09,7.55,1.2,7.73,2.63.12.98-4.21,2.48-5.82,1.67ZM150.55,53.49c1.24-1.36,2.01-2.9,2.14-4.53.43-5.25-5.88-9.41-14.09-9.41s-15.48,4.17-16.25,9.41c-.24,1.63.17,3.17,1.1,4.53-1.15.53-1.97,1.37-2.11,2.32-.24,1.63,1.63,2.96,4.18,2.96.24,0,.48-.01.71-.04-.35.47-.77,1.05-.89,1.34-.51,1.23,1.26,2.27,3.19,2.27,0,0,.93.06,1.15-.08.78-.47.33-2.58.33-2.58.05-.35.52-.64,1.07-.64s.95.29.91.64c0,0-.99,2.18-.33,2.65.54.38,2.7.38,3.33,0,.78-.47.31-2.65.31-2.65.04-.35.52-.64,1.06-.64s.95.29.91.64c0,0-.97,2.18-.3,2.65.55.38,2.7.38,3.33,0,.77-.47.28-2.65.28-2.65.04-.35.51-.64,1.05-.64s.96.29.92.64c0,0-.94,2.11-.26,2.58.19.13,1.13.08,1.13.08,1.94,0,3.94-1.04,3.71-2.27-.05-.29-.34-.87-.59-1.34.23.02.47.04.71.04,2.55,0,4.72-1.33,4.86-2.96.08-.95-.55-1.78-1.58-2.32Z"/>
      <path class="cls-3" d="M200.4,53.09c-1.71.81-5.85-.69-5.62-1.67.34-1.42,5.76-2.7,8.01-2.62,3.66.14-.69,3.48-2.39,4.28ZM194.54,56.16c-.88.57-4.11.57-4.99,0-.82-.53.54-.94,1.01-1.51.54-.66.82-1.26,1.49-1.26s.94.6,1.49,1.26c.47.57,1.81.99,1.01,1.51ZM183.69,53.09c-1.7-.8-6.06-4.14-2.4-4.28,2.25-.09,7.67,1.2,8.02,2.62.23.97-3.91,2.47-5.62,1.67ZM205.47,52.54c1.08-1.35,1.67-2.89,1.62-4.51-.17-5.23-6.95-9.38-15.15-9.38s-14.97,4.15-15.13,9.38c-.05,1.62.54,3.15,1.62,4.51-1.09.53-1.81,1.37-1.84,2.31-.05,1.63,1.97,2.95,4.51,2.95.24,0,.48-.01.71-.04-.3.46-.65,1.04-.74,1.33-.37,1.23,1.52,2.26,3.45,2.26,0,0,.93.06,1.14-.08.73-.47.03-2.57.03-2.57,0-.35.45-.64.99-.64s.98.28.98.64c0,0-.74,2.17-.02,2.64.59.38,2.74.38,3.33,0,.72-.47,0-2.64,0-2.64,0-.35.44-.64.98-.64s.98.28.98.64c0,0-.71,2.17,0,2.64.59.38,2.74.38,3.33,0,.72-.47-.03-2.64-.03-2.64,0-.35.44-.64.98-.64s.99.28.99.64c0,0-.69,2.1.04,2.57.2.13,1.14.08,1.14.08,1.93,0,3.81-1.04,3.44-2.26-.09-.29-.44-.87-.74-1.33.23.02.47.04.71.04,2.54,0,4.56-1.32,4.5-2.95-.03-.94-.75-1.78-1.84-2.31Z"/>
      <path class="cls-3" d="M199.19,21.37c-1.59.7-5.46-.6-5.24-1.45.32-1.24,5.38-2.35,7.48-2.28,3.42.12-.65,3.03-2.24,3.73ZM193.73,24.05c-.82.49-3.84.49-4.66,0-.77-.46.5-.82.94-1.31.51-.57.77-1.09,1.39-1.09s.88.52,1.39,1.09c.44.5,1.69.86.94,1.31ZM183.6,21.37c-1.59-.7-5.65-3.61-2.24-3.73,2.1-.07,7.16,1.04,7.48,2.28.22.85-3.65,2.15-5.24,1.45ZM203.92,20.89c1.02-1.18,1.57-2.52,1.52-3.93-.14-4.56-6.47-8.19-14.13-8.19s-13.99,3.63-14.14,8.19c-.05,1.41.5,2.75,1.52,3.93-1.02.46-1.69,1.19-1.71,2.01-.05,1.41,1.84,2.57,4.21,2.57.22,0,.44-.01.66-.03-.28.4-.61.91-.69,1.16-.34,1.07,1.41,1.97,3.22,1.97,0,0,.87.05,1.06-.07.68-.41.03-2.23.03-2.23,0-.31.42-.55.93-.55s.91.25.91.55c0,0-.69,1.89-.02,2.3.55.33,2.55.33,3.1,0,.67-.41,0-2.3,0-2.3,0-.31.41-.55.92-.55s.92.25.92.55c0,0-.67,1.89,0,2.3.55.33,2.56.33,3.1,0,.67-.41-.02-2.3-.02-2.3,0-.31.41-.55.91-.55s.92.25.92.55c0,0-.65,1.82.03,2.23.19.11,1.06.07,1.06.07,1.8,0,3.56-.9,3.22-1.97-.08-.25-.41-.76-.69-1.16.22.02.44.03.66.03,2.37,0,4.26-1.15,4.21-2.57-.03-.82-.7-1.55-1.71-2.01Z"/>
      <path class="cls-3" d="M250.46,20.4c-1.51.7-5.52-.6-5.4-1.44.18-1.23,5.1-2.34,7.2-2.27,3.42.12-.3,3.02-1.8,3.71ZM245.32,23.06c-.76.49-3.77.49-4.65,0-.82-.46.41-.81.79-1.31.44-.57.64-1.09,1.26-1.09s.94.52,1.51,1.09c.49.49,1.79.86,1.09,1.31ZM234.91,20.4c-1.67-.7-6.06-3.59-2.66-3.71,2.09-.07,7.27,1.04,7.73,2.27.31.84-3.39,2.14-5.07,1.44ZM255.13,19.92c.88-1.17,1.27-2.51,1.07-3.91-.67-4.54-7.4-8.15-15.05-8.15s-13.54,3.61-13.16,8.15c.12,1.41.82,2.74,1.97,3.91-.96.46-1.55,1.18-1.48,2,.12,1.41,2.13,2.56,4.49,2.56.22,0,.44-.01.65-.03-.23.4-.5.9-.55,1.15-.22,1.06,1.64,1.96,3.44,1.96,0,0,.87.05,1.05-.07.63-.41-.23-2.22-.23-2.22-.03-.3.35-.55.86-.55s.94.25.97.55c0,0-.47,1.88.24,2.29.58.33,2.59.33,3.09,0,.63-.41-.26-2.29-.26-2.29-.03-.3.35-.55.85-.55s.94.25.98.55c0,0-.45,1.88.27,2.29.59.33,2.59.33,3.09,0,.62-.41-.28-2.29-.28-2.29-.04-.3.34-.55.85-.55s.95.25.99.55c0,0-.44,1.81.29,2.22.2.11,1.07.07,1.07.07,1.8,0,3.44-.9,2.98-1.96-.11-.25-.49-.75-.82-1.15.22.02.44.03.66.03,2.37,0,4.11-1.15,3.9-2.56-.12-.82-.87-1.54-1.94-2Z"/>
      <g>
        <path class="cls-1" d="M201.19,72.87c-5.8,0-10.5,3.21-10.51,7.22,0,1.07.34,2.08.93,3.01l-15.11,11.01c-1.44,1.05-1.49,2.75-.11,3.81,1.04.8,2.6,1,3.92.59l2.27,1.73c.88.67,2.32.67,3.22,0l.74-.55c.89-.67.9-1.75.02-2.41l-2.08-1.57.47-.35,2.08,1.56c.88.66,2.32.66,3.2,0l.73-.55c.88-.66.88-1.73,0-2.38l-2.08-1.55,7.74-5.72c1.46.51,3.1.8,4.83.8,5.97,0,10.67-3.35,10.5-7.43-.16-4.01-4.99-7.22-10.79-7.22ZM201.4,83.59c-2.66,0-4.84-1.57-4.86-3.49s2.1-3.45,4.72-3.45,4.8,1.54,4.86,3.45-2.06,3.49-4.72,3.49Z"/>
        <path class="cls-1" d="M196.49,88.42l-7.04-5.14c-.61-.45-1.6-.45-2.22,0-.31.23-.47.53-.46.83-.4,0-.81.09-1.12.32-.6.43-.61,1.14-.02,1.57l7.12,5.26c.6.45,1.58.45,2.18,0,.31-.23.45-.53.44-.83.42,0,.83-.11,1.14-.34.62-.46.61-1.2-.02-1.66Z"/>
      </g>
      <g>
        <path class="cls-1" d="M148.88,8.71c-5.04,0-9.43,2.43-9.79,5.46-.1.8.11,1.57.54,2.26l-14.06,8.27c-1.33.78-1.52,2.06-.42,2.85.83.6,2.16.74,3.34.44l1.81,1.29c.7.5,1.95.5,2.78,0l.69-.41c.83-.5.93-1.31.23-1.8l-1.66-1.17.44-.26,1.66,1.17c.7.5,1.94.5,2.77,0l.68-.41c.82-.49.92-1.29.21-1.78l-1.66-1.16,7.22-4.29c1.22.38,2.61.6,4.12.6,5.17,0,9.56-2.52,9.8-5.6.24-3.03-3.66-5.46-8.71-5.46ZM148.08,16.79c-2.31,0-4.06-1.18-3.9-2.63s2.14-2.6,4.42-2.6,4.03,1.16,3.9,2.6-2.11,2.63-4.42,2.63Z"/>
        <path class="cls-1" d="M143.38,20.43l-5.64-3.87c-.49-.34-1.35-.34-1.93,0-.29.17-.45.4-.48.62-.35,0-.71.07-1,.24-.56.33-.63.86-.15,1.18l5.7,3.95c.48.33,1.33.33,1.89,0,.29-.17.44-.4.45-.63.36,0,.73-.08,1.02-.26.58-.34.64-.9.14-1.24Z"/>
      </g>
      <g>
        <path class="cls-1" d="M251.43,38.98c-5.4,0-9.47,2.78-9.09,6.26.1.92.51,1.8,1.16,2.6l-12.98,9.51c-1.23.9-1.12,2.37.27,3.28,1.04.69,2.51.86,3.7.51l2.28,1.49c.88.58,2.22.58,2.99,0l.63-.48c.77-.58.67-1.51-.21-2.08l-2.08-1.35.41-.3,2.08,1.35c.88.57,2.21.57,2.97,0l.63-.47c.76-.57.65-1.49-.22-2.05l-2.08-1.33,6.65-4.94c1.4.44,2.95.69,4.57.69,5.55,0,9.61-2.9,9.07-6.43-.53-3.48-5.32-6.26-10.72-6.26ZM252.64,48.26c-2.48,0-4.65-1.36-4.85-3.02s1.62-2.98,4.07-2.98,4.62,1.33,4.85,2.98-1.59,3.02-4.07,3.02Z"/>
        <path class="cls-1" d="M248.54,52.44l-7.03-4.45c-.61-.39-1.54-.39-2.07,0-.27.2-.38.46-.35.71-.37,0-.74.08-1.01.28-.52.37-.46.98.13,1.36l7.12,4.54c.6.38,1.51.38,2.02,0,.27-.2.37-.46.33-.72.39,0,.76-.09,1.03-.29.53-.4.45-1.04-.17-1.43Z"/>
      </g>
    </g>
    <g>
      <g>
        <path class="cls-4" d="M297.1,271.27H86.05c-6.71,0-11.23-5.39-10.11-11.93l7.34-43.22c.96-5.63,6.64-10.12,12.72-10.12h191.16c6.07,0,11.76,4.49,12.72,10.12l7.34,43.22c1.11,6.54-3.41,11.93-10.11,11.93Z"/>
        <path class="cls-4" d="M287.15,205.99H96c-6.07,0-10.25-4.43-9.33-9.81l6.08-35.79c.8-4.69,5.93-8.44,11.48-8.44h174.69c5.55,0,10.69,3.75,11.48,8.44l6.08,35.79c.91,5.38-3.26,9.81-9.33,9.81Z"/>
        <path class="cls-4" d="M278.92,151.96H104.23c-5.55,0-9.42-3.7-8.66-8.2l5.12-30.12c.67-3.97,5.36-7.15,10.47-7.15h160.84c5.11,0,9.79,3.18,10.47,7.15l5.12,30.12c.76,4.5-3.11,8.2-8.66,8.2Z"/>
        <line class="cls-2" x1="221.26" y1="106.07" x2="230.51" y2="270.54"/>
        <line class="cls-2" x1="161.89" y1="106.07" x2="152.64" y2="270.54"/>
      </g>
      <path class="cls-3" d="M127.48,243.43c-2.57,1.58-8.05-1.36-7.51-3.26.79-2.78,8.63-5.28,11.76-5.11,5.08.27-1.7,6.8-4.25,8.38ZM118.59,249.47c-1.36,1.12-5.91,1.12-7.02,0-1.03-1.05.97-1.85,1.76-2.97.91-1.3,1.43-2.47,2.37-2.47s1.19,1.17,1.8,2.47c.53,1.12,2.32,1.95,1.08,2.98ZM104.07,243.43c-2.2-1.58-7.49-8.11-2.34-8.38,3.16-.17,10.44,2.33,10.6,5.11.11,1.91-6.05,4.85-8.25,3.26ZM134.69,242.35c1.8-2.65,2.94-5.65,3.19-8.81.83-10.13-7.71-18.11-19.05-18.11s-21.71,7.98-23.19,18.11c-.46,3.16-.01,6.16,1.18,8.81-1.66,1.04-2.87,2.68-3.14,4.54-.47,3.21,2.05,5.82,5.62,5.82.34,0,.67-.02,1-.07-.53.92-1.16,2.06-1.35,2.64-.81,2.44,1.6,4.5,4.32,4.5,0,0,1.3.11,1.62-.15,1.14-.93.65-5.1.65-5.1.09-.7.78-1.26,1.55-1.26s1.31.56,1.23,1.26c0,0-1.55,4.31-.65,5.25.74.76,3.78.76,4.7,0,1.13-.93.61-5.25.61-5.25.08-.7.77-1.26,1.53-1.26s1.32.56,1.24,1.26c0,0-1.5,4.31-.59,5.25.75.76,3.78.76,4.69,0,1.12-.93.55-5.25.55-5.25.07-.7.75-1.26,1.52-1.26s1.33.56,1.26,1.26c0,0-1.44,4.16-.52,5.1.26.26,1.59.15,1.59.15,2.73,0,5.6-2.06,5.35-4.5-.06-.58-.43-1.72-.75-2.64.32.05.65.07.99.07,3.58,0,6.69-2.62,6.95-5.82.15-1.85-.69-3.49-2.1-4.53Z"/>
      <path class="cls-3" d="M279.96,243.43c-2.2,1.58-8.36-1.36-8.26-3.26.15-2.78,7.42-5.28,10.59-5.11,5.14.27-.14,6.8-2.33,8.38ZM272.46,249.47c-1.11,1.12-5.65,1.12-7.02,0-1.27-1.05.54-1.85,1.08-2.97.62-1.3.87-2.47,1.8-2.47s1.45,1.17,2.37,2.47c.79,1.12,2.77,1.95,1.76,2.98ZM256.56,243.43c-2.56-1.58-9.35-8.11-4.26-8.38,3.12-.17,10.98,2.33,11.77,5.11.54,1.91-4.94,4.85-7.5,3.26ZM286.93,242.35c1.19-2.65,1.64-5.65,1.17-8.81-1.49-10.13-11.86-18.11-23.21-18.11s-19.88,7.98-19.04,18.11c.26,3.16,1.4,6.16,3.2,8.81-1.42,1.04-2.25,2.68-2.1,4.54.27,3.21,3.38,5.82,6.96,5.82.34,0,.67-.02.99-.07-.32.92-.69,2.06-.75,2.64-.26,2.44,2.63,4.5,5.35,4.5,0,0,1.33.11,1.59-.15.92-.93-.52-5.1-.52-5.1-.07-.7.49-1.26,1.26-1.26s1.44.56,1.52,1.26c0,0-.56,4.31.56,5.25.91.76,3.95.76,4.7,0,.91-.93-.59-5.25-.59-5.25-.08-.7.48-1.26,1.24-1.26s1.45.56,1.53,1.26c0,0-.51,4.31.61,5.25.92.76,3.96.76,4.69,0,.9-.93-.65-5.25-.65-5.25-.09-.7.46-1.26,1.23-1.26s1.46.56,1.55,1.26c0,0-.48,4.16.65,5.1.32.26,1.62.15,1.62.15,2.73,0,5.13-2.06,4.32-4.5-.19-.58-.82-1.72-1.36-2.64.33.05.67.07,1.01.07,3.58,0,6.09-2.62,5.62-5.82-.28-1.85-1.49-3.49-3.14-4.53Z"/>
      <path class="cls-3" d="M132.82,183.67c-2.32,1.31-7.34-1.13-6.86-2.71.7-2.3,7.82-4.38,10.67-4.24,4.63.22-1.5,5.64-3.81,6.95ZM124.78,188.68c-1.23.93-5.36.93-6.38,0-.95-.87.86-1.53,1.58-2.46.82-1.07,1.28-2.05,2.13-2.05s1.09.97,1.66,2.04c.49.93,2.13,1.62,1.01,2.46ZM111.51,183.67c-2.02-1.31-6.9-6.72-2.22-6.95,2.88-.14,9.53,1.94,9.7,4.24.11,1.58-5.46,4.02-7.48,2.71ZM139.38,182.78c1.62-2.2,2.64-4.69,2.86-7.31.7-8.42-7.15-15.08-17.52-15.08s-19.74,6.65-20.98,15.08c-.39,2.62.06,5.11,1.18,7.31-1.5.87-2.58,2.22-2.8,3.76-.39,2.65,1.93,4.82,5.18,4.82.31,0,.61-.02.91-.06-.47.76-1.04,1.7-1.2,2.18-.71,2.01,1.5,3.71,3.97,3.71,0,0,1.19.09,1.47-.12,1.02-.77.54-4.21.54-4.21.07-.58.7-1.04,1.39-1.04s1.2.47,1.13,1.04c0,0-1.36,3.56-.54,4.33.68.63,3.44.63,4.26,0,1.02-.77.51-4.33.51-4.33.07-.58.69-1.04,1.38-1.04s1.2.47,1.14,1.04c0,0-1.33,3.56-.49,4.33.68.63,3.44.63,4.26,0,1.01-.77.46-4.33.46-4.33.06-.58.67-1.04,1.37-1.04s1.21.47,1.15,1.04c0,0-1.28,3.44-.43,4.21.24.21,1.45.12,1.45.12,2.48,0,5.07-1.7,4.82-3.71-.06-.48-.4-1.42-.7-2.18.29.04.59.06.9.06,3.25,0,6.06-2.16,6.28-4.82.12-1.53-.65-2.89-1.94-3.76Z"/>
      <path class="cls-3" d="M202.8,182.14c-2.17,1.31-7.45-1.12-7.15-2.69.43-2.29,7.3-4.36,10.16-4.22,4.64.22-.85,5.61-3,6.91ZM195.36,187.11c-1.12.92-5.24.92-6.36,0-1.05-.86.69-1.53,1.29-2.45.69-1.07,1.04-2.04,1.89-2.04s1.2.96,1.9,2.03c.6.92,2.31,1.61,1.29,2.45ZM181.55,182.14c-2.16-1.3-7.66-6.69-3.02-6.91,2.86-.14,9.73,1.93,10.17,4.22.3,1.57-4.98,4-7.15,2.69ZM209.24,181.25c1.36-2.19,2.09-4.66,2-7.27-.28-8.38-8.88-15-19.21-15s-18.92,6.62-19.19,15c-.08,2.61.65,5.08,2.02,7.27-1.39.86-2.32,2.21-2.36,3.74-.08,2.64,2.48,4.79,5.72,4.79.31,0,.61-.02.9-.06-.39.76-.84,1.7-.95,2.17-.48,2,1.92,3.69,4.39,3.69,0,0,1.19.09,1.45-.12.93-.77.05-4.19.05-4.19,0-.57.58-1.04,1.27-1.04s1.25.46,1.24,1.04c0,0-.95,3.54-.04,4.31.75.62,3.5.62,4.25,0,.92-.77,0-4.31,0-4.31,0-.57.56-1.04,1.26-1.04s1.25.46,1.26,1.04c0,0-.91,3.54.01,4.31.75.62,3.51.62,4.25,0,.92-.77-.04-4.31-.04-4.31,0-.57.55-1.04,1.24-1.04s1.26.46,1.27,1.04c0,0-.88,3.42.06,4.19.26.21,1.46.12,1.46.12,2.47,0,4.86-1.69,4.38-3.69-.11-.47-.57-1.41-.95-2.17.29.04.6.06.9.06,3.24,0,5.8-2.15,5.71-4.79-.05-1.53-.98-2.88-2.37-3.74Z"/>
      <path class="cls-3" d="M201.09,131.73c-1.99,1.1-6.82-.94-6.55-2.26.4-1.93,6.7-3.66,9.33-3.55,4.26.19-.79,4.72-2.77,5.81ZM194.27,135.91c-1.03.77-4.8.77-5.83,0-.96-.72.63-1.28,1.18-2.05.64-.9.96-1.71,1.74-1.71s1.1.81,1.73,1.71c.55.78,2.11,1.35,1.18,2.06ZM181.62,131.73c-1.98-1.09-7.03-5.62-2.77-5.81,2.62-.12,8.93,1.62,9.32,3.55.27,1.32-4.57,3.36-6.55,2.26ZM207,130.99c1.26-1.84,1.93-3.92,1.86-6.12-.22-7.06-8.1-12.66-17.61-12.66s-17.39,5.59-17.62,12.66c-.07,2.19.6,4.28,1.86,6.12-1.27.72-2.12,1.86-2.16,3.14-.07,2.21,2.27,4.02,5.24,4.02.28,0,.56-.02.83-.05-.35.63-.77,1.42-.87,1.82-.44,1.68,1.76,3.09,4.02,3.09,0,0,1.09.08,1.33-.1.85-.64.05-3.5.05-3.5,0-.48.53-.87,1.16-.87s1.14.39,1.14.87c0,0-.87,2.97-.03,3.61.68.52,3.2.52,3.89,0,.85-.64,0-3.61,0-3.61,0-.48.52-.87,1.15-.87s1.15.39,1.15.87c0,0-.84,2.97,0,3.61.69.52,3.21.52,3.89,0,.84-.64-.03-3.61-.03-3.61,0-.48.51-.87,1.14-.87s1.15.39,1.16.87c0,0-.81,2.86.04,3.5.24.18,1.33.1,1.33.1,2.26,0,4.45-1.41,4.02-3.09-.1-.4-.51-1.19-.87-1.82.27.03.55.05.83.05,2.97,0,5.32-1.81,5.25-4.02-.04-1.28-.89-2.41-2.16-3.14Z"/>
      <path class="cls-3" d="M265.1,130.21c-1.86,1.09-6.91-.94-6.8-2.25.17-1.92,6.26-3.64,8.89-3.53,4.27.19-.25,4.69-2.1,5.78ZM258.78,134.37c-.94.77-4.7.77-5.81,0-1.04-.72.48-1.27.94-2.04.53-.89.76-1.7,1.53-1.7s1.19.81,1.93,1.7c.64.77,2.26,1.34,1.41,2.04ZM245.68,130.21c-2.1-1.09-7.66-5.59-3.43-5.78,2.6-.12,9.09,1.61,9.71,3.53.42,1.31-4.17,3.34-6.28,2.25ZM270.91,129.47c1.04-1.83,1.48-3.9,1.15-6.08-1.04-7.03-9.54-12.59-19.02-12.59s-16.7,5.56-16.11,12.59c.18,2.18,1.09,4.25,2.56,6.08-1.19.72-1.9,1.85-1.79,3.12.18,2.2,2.73,4,5.69,4,.28,0,.55-.02.82-.05-.28.63-.6,1.41-.65,1.81-.24,1.67,2.11,3.07,4.36,3.07,0,0,1.1.07,1.31-.1.78-.64-.36-3.48-.36-3.48-.05-.48.43-.86,1.06-.86s1.18.39,1.24.86c0,0-.53,2.95.38,3.59.74.52,3.25.52,3.88,0,.77-.64-.41-3.59-.41-3.59-.05-.48.42-.86,1.05-.86s1.19.39,1.25.86c0,0-.49,2.95.42,3.59.75.52,3.26.52,3.88,0,.76-.64-.45-3.59-.45-3.59-.06-.48.41-.86,1.04-.86s1.2.39,1.26.86c0,0-.48,2.85.45,3.48.26.18,1.34.1,1.34.1,2.25,0,4.28-1.41,3.65-3.07-.15-.4-.65-1.18-1.07-1.81.27.03.55.05.83.05,2.96,0,5.09-1.8,4.77-4-.19-1.27-1.16-2.4-2.52-3.12Z"/>
      <g>
        <path class="cls-1" d="M203.95,214.51c-7.46,0-13.51,5.32-13.52,12,0,1.78.43,3.48,1.2,5.02l-19.68,18.56c-1.88,1.78-1.98,4.67-.19,6.47,1.35,1.36,3.38,1.7,5.11,1.01l2.96,2.96c1.15,1.15,3.04,1.15,4.21,0l.97-.94c1.17-1.14,1.19-2.98.04-4.11l-2.7-2.67.62-.59,2.7,2.66c1.15,1.13,3.02,1.13,4.18,0l.95-.93c1.15-1.12,1.15-2.93,0-4.04l-2.7-2.62,10.05-9.66c1.89.85,4.02,1.34,6.27,1.34,7.74,0,13.79-5.64,13.52-12.46-.27-6.68-6.53-12-13.99-12ZM204.29,232.36c-3.45,0-6.27-2.63-6.3-5.84-.03-3.18,2.69-5.74,6.08-5.74s6.21,2.56,6.3,5.74c.09,3.21-2.63,5.84-6.08,5.84Z"/>
        <path class="cls-1" d="M197.96,240.49l-9.13-8.64c-.79-.75-2.08-.75-2.88,0-.41.38-.61.88-.6,1.39-.52-.01-1.05.16-1.45.53-.78.73-.79,1.91-.03,2.64l9.23,8.86c.78.75,2.05.75,2.83,0,.4-.39.58-.9.57-1.41.54,0,1.08-.18,1.49-.58.8-.77.79-2.03-.03-2.8Z"/>
      </g>
      <g>
        <path class="cls-1" d="M138.61,112.11c-6.26,0-11.78,3.74-12.34,8.42-.15,1.25.07,2.43.59,3.51l-17.9,12.89c-1.7,1.23-2.01,3.23-.66,4.47,1.02.94,2.68,1.17,4.17.69l2.22,2.04c.86.79,2.43.79,3.49,0l.88-.65c1.06-.78,1.22-2.05.36-2.83l-2.03-1.84.56-.41,2.03,1.84c.86.78,2.42.78,3.47,0l.87-.64c1.05-.77,1.2-2.02.33-2.79l-2.03-1.81,9.17-6.7c1.51.59,3.24.94,5.12.94,6.46,0,12-3.92,12.37-8.69s-4.41-8.42-10.67-8.42ZM137.37,124.61c-2.88,0-5.02-1.84-4.77-4.08s2.74-4.02,5.58-4.02,4.98,1.79,4.78,4.02-2.7,4.08-5.58,4.08Z"/>
        <path class="cls-1" d="M131.4,130.27l-6.9-6.02c-.6-.52-1.67-.52-2.4,0-.37.27-.58.62-.62.97-.43,0-.89.11-1.25.37-.71.51-.82,1.33-.24,1.84l6.97,6.16c.59.52,1.65.52,2.36,0,.37-.27.56-.63.59-.98.45,0,.91-.13,1.29-.4.73-.54.82-1.41.21-1.94Z"/>
      </g>
      <g>
        <path class="cls-1" d="M267.1,159.49c-6.81,0-11.85,4.43-11.25,10,.16,1.48.71,2.89,1.56,4.18l-16.19,15.37c-1.55,1.47-1.36,3.86.43,5.35,1.35,1.12,3.23,1.4,4.74.83l2.96,2.44c1.15.95,2.86.95,3.83,0l.79-.78c.96-.94.8-2.46-.34-3.39l-2.7-2.2.51-.49,2.7,2.2c1.14.93,2.85.93,3.8,0l.78-.77c.94-.93.78-2.42-.37-3.34l-2.7-2.17,8.26-8c1.8.71,3.78,1.11,5.83,1.11,7.05,0,12.06-4.68,11.2-10.35-.84-5.56-7.03-10-13.85-10ZM269.03,174.34c-3.14,0-5.96-2.18-6.28-4.86s1.93-4.78,5.02-4.78,5.9,2.13,6.27,4.78-1.87,4.86-5.01,4.86Z"/>
        <path class="cls-1" d="M264,181.09l-9.1-7.17c-.79-.62-1.96-.62-2.62,0-.34.32-.47.73-.42,1.15-.48-.01-.94.13-1.27.44-.64.6-.55,1.59.22,2.19l9.22,7.34c.78.62,1.94.62,2.58,0,.33-.32.45-.75.39-1.17.49,0,.97-.15,1.3-.48.66-.64.53-1.68-.28-2.32Z"/>
      </g>
    </g>
  </g>
  <g>
    <path class="cls-5" d="M92.85,320.78h-13.98v-7.09h36.59v7.09h-13.98v36.33h-8.62v-36.33Z"/>
    <path class="cls-5" d="M117.69,335.46c0-13.98,8.11-22.73,21.26-22.73s21.33,8.75,21.33,22.73-8.17,22.6-21.33,22.6-21.26-8.62-21.26-22.6ZM151.47,335.46c0-9.64-4.66-15.58-12.51-15.58s-12.45,5.87-12.45,15.58,4.6,15.45,12.45,15.45,12.51-5.81,12.51-15.45Z"/>
    <path class="cls-5" d="M195.21,329.46l-1.02-4.15-1.02,4.15-7.92,27.65h-9.77l-13.22-43.42h9.19l8.24,30.58,1.02,4.41,1.02-4.41,8.75-30.58h7.98l8.62,30.58,1.09,4.53.96-4.53,8.24-30.58h8.68l-13.15,43.42h-9.71l-7.98-27.65Z"/>
    <path class="cls-5" d="M232.12,313.69h30.52v6.83h-21.9v10.85h19.47v6.77h-19.47v12.13h21.9v6.83h-30.52v-43.42Z"/>
    <path class="cls-5" d="M269.55,313.69h16.98c9.77,0,15.84,4.92,15.84,12.83,0,4.85-2.11,8.24-5.81,10.22,2.23,1.4,3.58,3.7,4.47,7.28l3.26,13.09h-8.94l-2.55-11.49c-1.02-4.47-2.68-5.36-6.96-5.36h-7.66v16.86h-8.62v-43.42ZM278.17,320.52v12.96h7.98c4.85,0,7.41-2.55,7.41-6.51s-2.62-6.45-7.21-6.45h-8.17Z"/>
  </g>
</svg>