<?xml version="1.0" encoding="UTF-8"?>
<svg id="Warstwa_1" xmlns="http://www.w3.org/2000/svg" viewBox="0 0 383.99 383.99">
  <defs>
    <style>
      .cls-1 {
        fill: #b85d1f;
        stroke: #a62d32;
        stroke-miterlimit: 10;
        stroke-width: 5.51px;
      }

      .cls-2 {
        fill: #bf45ba;
      }

      .cls-3 {
        fill: #829399;
      }

      .cls-4 {
        fill: #6a787d;
      }

      .cls-5 {
        fill: #611a1d;
      }

      .cls-6 {
        fill: #cc373d;
      }

      .cls-7 {
        fill: #4dba3f;
      }
    </style>
  </defs>
  <path class="cls-6" d="M383.99,37.4v309.18c0,20.66-16.76,37.4-37.42,37.4H37.4c-20.66,0-37.4-16.75-37.4-37.4V37.4c0-8.64,2.93-16.59,7.84-22.92C14.68,5.67,25.39,0,37.4,0h309.17c11.98,0,22.65,5.64,29.49,14.4.02.04.05.05.07.09,4.92,6.33,7.86,14.28,7.86,22.92Z"/>
  <g>
    <path class="cls-3" d="M383.99,37.4v99.82c-13.01,13.62-27.47,25.87-43.11,36.48-38.79,26.31-84.92,42.65-134.7,45.26-4.69.25-9.42.37-14.19.37s-9.51-.12-14.2-.37C107.96,215.28,45.3,184.64,0,137.26V37.4c0-8.64,2.93-16.59,7.84-22.92C14.68,5.67,25.39,0,37.4,0h309.17c11.98,0,22.65,5.64,29.49,14.4.02.04.05.05.07.09,4.92,6.33,7.86,14.28,7.86,22.92Z"/>
    <path class="cls-4" d="M376.13,14.49c-3.27,9.96-7.34,19.54-12.12,28.71-.71,1.35-1.42,2.72-2.17,4.05-.04.05-.05.11-.09.16-.59,1.08-1.19,2.15-1.81,3.22-.39.69-.8,1.4-1.23,2.1-33.79,56.82-95.8,94.9-166.72,94.9h-.21c-53.58-.05-102.06-21.85-137.12-57.03C33.62,69.46,17.4,43.48,7.84,14.49,14.68,5.67,25.39,0,37.4,0h309.17c11.98,0,22.65,5.64,29.49,14.4.02.04.05.05.07.09Z"/>
  </g>
  <path class="cls-7" d="M191.78,147.32v71.71c-73.33,0-139.71-29.72-187.76-77.78l50.7-50.72c35.07,35.07,83.54,56.78,137.06,56.78Z"/>
  <polygon class="cls-1" points="191.99 169.77 167.87 253.33 216.11 253.33 191.99 169.77"/>
  <path class="cls-2" d="M383.99,37.4v99.91c-12.76,13.39-27.15,25.62-43.09,36.43l-.02-.04-40.21-59.31c24.48-16.6,43.95-37.79,58.04-61.67.43-.69.84-1.4,1.23-2.1.62-1.07,1.23-2.13,1.81-3.22.04-.05.05-.11.09-.16.75-1.33,1.46-2.7,2.17-4.05,4.8-9.3,8.84-18.93,12.05-28.8.02.04.05.05.07.09,4.92,6.33,7.86,14.28,7.86,22.92Z"/>
  <g>
    <path class="cls-5" d="M114.57,323.72l-1.02-4.16-1.02,4.16-7.93,27.71h-9.79l-13.25-43.51h9.22l8.26,30.65,1.02,4.42,1.02-4.42,8.77-30.65h8l8.64,30.65,1.09,4.54.96-4.54,8.26-30.65h8.7l-13.18,43.51h-9.73l-8-27.71Z"/>
    <path class="cls-5" d="M151.56,307.91h8.64v17.66h19.26v-17.66h8.57v43.51h-8.57v-18.81h-19.26v18.81h-8.64v-43.51Z"/>
    <path class="cls-5" d="M196.68,307.91h30.59v6.85h-21.95v10.88h19.52v6.78h-19.52v12.16h21.95v6.85h-30.59v-43.51Z"/>
    <path class="cls-5" d="M234.18,307.91h30.59v6.85h-21.95v10.88h19.52v6.78h-19.52v12.16h21.95v6.85h-30.59v-43.51Z"/>
    <path class="cls-5" d="M271.69,307.91h8.64v36.54h20.16v6.98h-28.8v-43.51Z"/>
  </g>
</svg>